<?xml version="1.0" encoding="UTF-8" standalone="no"?>
<!DOCTYPE svg PUBLIC "-//W3C//DTD SVG 1.1//EN" "http://www.w3.org/Graphics/SVG/1.1/DTD/svg11.dtd">
<!-- Created with Vectornator (http://vectornator.io/) -->
<svg height="100%" stroke-miterlimit="10" style="fill-rule:nonzero;clip-rule:evenodd;stroke-linecap:round;stroke-linejoin:round;" version="1.1" viewBox="0 0 172 215" width="100%" xml:space="preserve" xmlns="http://www.w3.org/2000/svg" xmlns:vectornator="http://vectornator.io" xmlns:xlink="http://www.w3.org/1999/xlink">
<defs>
<linearGradient gradientTransform="matrix(5.1666 273.833 -273.833 5.1666 -12.0833 -25.8333)" gradientUnits="userSpaceOnUse" id="LinearGradient" x1="0" x2="1" y1="0" y2="0">
<stop offset="0.105158" stop-color="#ff2e53"/>
<stop offset="0.605776" stop-color="#feda42"/>
<stop offset="0.915348" stop-color="#fea747"/>
</linearGradient>
<radialGradient cx="0" cy="0" gradientTransform="matrix(-7.28341e-06 166.625 -1050.27 -4.59088e-05 79.625 108.5)" gradientUnits="userSpaceOnUse" id="RadialGradient" r="1">
<stop offset="0" stop-color="#f7c66b"/>
<stop offset="0.117647" stop-color="#ff868c"/>
<stop offset="0.333253" stop-color="#661b94"/>
<stop offset="0.950221" stop-color="#661b94"/>
</radialGradient>
<linearGradient gradientTransform="matrix(0 -33.839 33.839 0 115.793 163.063)" gradientUnits="userSpaceOnUse" id="LinearGradient_2" x1="0" x2="1" y1="0" y2="0">
<stop offset="0" stop-color="#ffffff"/>
<stop offset="1" stop-color="#fceebc" stop-opacity="0.9"/>
</linearGradient>
<linearGradient gradientTransform="matrix(-2.602 -13.385 13.385 -2.602 105.779 136.888)" gradientUnits="userSpaceOnUse" id="LinearGradient_3" x1="0" x2="1" y1="0" y2="0">
<stop offset="0" stop-color="#ffffff"/>
<stop offset="1" stop-color="#fceebc" stop-opacity="0.9"/>
</linearGradient>
<linearGradient gradientTransform="matrix(-203.607 -55.322 55.322 -203.607 174.519 217.551)" gradientUnits="userSpaceOnUse" id="LinearGradient_4" x1="0" x2="1" y1="0" y2="0">
<stop offset="0" stop-color="#4c1f54"/>
<stop offset="1" stop-color="#754a6d"/>
</linearGradient>
<linearGradient gradientTransform="matrix(-5.1666 56.833 -56.833 -5.1666 78.3333 155)" gradientUnits="userSpaceOnUse" id="LinearGradient_5" x1="0" x2="1" y1="0" y2="0">
<stop offset="0" stop-color="#ffffff"/>
<stop offset="1" stop-color="#ffd987"/>
</linearGradient>
<linearGradient gradientTransform="matrix(-252.056 -4.181 4.181 -252.056 154.572 218.819)" gradientUnits="userSpaceOnUse" id="LinearGradient_6" x1="0" x2="1" y1="0" y2="0">
<stop offset="0" stop-color="#36023f"/>
<stop offset="1" stop-color="#6c3361"/>
</linearGradient>
<linearGradient gradientTransform="matrix(25.8333 -19.375 19.375 25.8333 -12.0833 143.375)" gradientUnits="userSpaceOnUse" id="LinearGradient_7" x1="0" x2="1" y1="0" y2="0">
<stop offset="0" stop-color="#8b2d7c"/>
<stop offset="1" stop-color="#f5c471"/>
</linearGradient>
</defs>
<clipPath id="ArtboardFrame">
<rect height="215" width="172" x="0" y="0"/>
</clipPath>
<g clip-path="url(#ArtboardFrame)" id="Без-названия" vectornator:layerName="Без названия">
<g opacity="1" vectornator:layerName="rect">
<clipPath clip-rule="nonzero" id="ClipPath">
<path d="M-25 0L192 0L192 0L192 217L192 217L-25 217L-25 217L-25 0L-25 0Z"/>
</clipPath>
<g clip-path="url(#ClipPath)">
<path d="M-25 0L192 0L192 0L192 217L192 217L-25 217L-25 217L-25 0L-25 0Z" fill="url(#LinearGradient)" fill-rule="nonzero" opacity="1" stroke="none" vectornator:layerName="rect"/>
<path d="M55.0833 105.917C55.0833 90.2229 67.8059 77.5003 83.5 77.5003C99.1941 77.5003 111.917 90.2229 111.917 105.917C111.917 121.611 99.1941 134.334 83.5 134.334C67.8059 134.334 55.0833 121.611 55.0833 105.917Z" fill="#fdf1dc" fill-rule="nonzero" opacity="1" stroke="none" vectornator:layerName="ellipse"/>
<path d="M83.5 217C143.423 217 192 168.423 192 108.5L-25 108.5C-25 168.423 23.5771 217 83.5 217Z" fill="url(#RadialGradient)" fill-rule="nonzero" opacity="1" stroke="none" vectornator:layerName="path"/>
<path d="M137.75 162.75C164.628 164.812 211.986 156.359 223.238 146.838C223.238 146.838 164.844 156.797 144.262 156.349C82.2083 155 8.63687 129.224 8.63687 129.224C3.47019 129.224 68.5274 157.439 137.75 162.75Z" fill="url(#LinearGradient_2)" fill-rule="nonzero" opacity="0.2" stroke="none" vectornator:layerName="path"/>
<path d="M128.447 118.597C78.7975 125.437 24.5384 115.555 31.6194 113.512C31.6194 113.512 86.8955 118.092 128.447 118.597Z" fill="#ffffff" fill-rule="nonzero" opacity="0.2" stroke="none" vectornator:layerName="path"/>
<path d="M141.652 127.085C153.25 135.625 51.2083 131.75 68 130.458C84.7916 129.167 123.542 132.16 141.652 127.085Z" fill="url(#LinearGradient_3)" fill-rule="nonzero" opacity="0.2" stroke="none" vectornator:layerName="path"/>
<path d="M192.356 191.815C175.337 229.473 126.612 258.934 82.6012 258.934C51.6933 258.934 15.2441 244.43-9.683 222.738C-15.1713 217.962-21.3069 208.573-25.6122 199.992C-29.7558 191.734-29.1265 169.611-26.0836 167.037C-14.8314 157.516 7.46158 155.807 34.3398 157.869C103.562 163.18 133.825 191.271 192.356 191.271L192.356 191.815Z" fill="url(#LinearGradient_4)" fill-rule="nonzero" opacity="1" stroke="none" vectornator:layerName="path"/>
<path d="M188.683 198.984C190.032 196.632 191.26 194.24 192.356 191.815L192.356 191.271C162.36 191.271 139.789 183.893 115.594 175.985C92.5757 168.462 68.0879 160.458 34.3398 157.869C7.46157 155.807-14.8314 157.516-26.0836 167.037L-26.0836 172.203C-14.8314 162.683 7.46157 160.974 34.3398 163.036C68.0879 165.625 92.5757 176.212 115.594 183.735C138.791 191.317 160.496 198.411 188.683 198.984Z" fill="url(#LinearGradient_5)" fill-rule="nonzero" opacity="0.25" stroke="none" vectornator:layerName="path"/>
<path d="M169.668 190.004C159.881 238.89 110.6 284.162 58.8646 296.106C22.532 304.494-24.2508 287.003-59.4399 268.269C-67.1876 264.144-76.9481 254.772-84.3377 245.854C-91.4498 237.271-91.5741 219.504-88.6958 215.651C-78.0524 201.406-57.4505 184.938-25.2952 180.067C57.5182 167.524 75.75 207.958 169.52 189.364L169.668 190.004Z" fill="url(#LinearGradient_6)" fill-rule="nonzero" opacity="1" stroke="none" vectornator:layerName="path"/>
<path d="M-15.9583 170.5L6.00001 149.833L-23.7083 149.833L-15.9583 170.5Z" fill="#220136" fill-opacity="0.5" fill-rule="nonzero" opacity="1" stroke="none" vectornator:layerName="path"/>
<path d="M232.042 85.25C224.622 85.25 220.417 81.375 211.375 81.375C206.759 81.375 241.083 92.5921 232.042 96.875C223.65 99.9068 182.958 97.2829 166.167 96.875C149.375 96.4671 135.167 108.5 135.167 108.5L210.083 109.792L207.5 112.375L268.208 114.959L268.208 72.3336C268.208 72.3336 257.875 65.1216 251.417 71.0417C242.962 78.7917 239.461 85.25 232.042 85.25Z" fill="#b56c7f" fill-rule="nonzero" opacity="1" stroke="none" vectornator:layerName="path"/>
<path d="M-61.1667 85.25C-53.7472 85.25-49.5417 81.375-40.5 81.375C-35.884 81.375-27.5833 93-18.5417 97.2829C-10.1503 100.315-0.541389 96.875 4.70832 96.875C9.87498 96.875 35.7083 108.5 35.7083 108.5L-39.2083 109.792L-36.625 112.375L-97.3333 114.959L-97.3333 72.3336C-97.3333 72.3336-87 65.1216-80.5417 71.0417C-72.0871 78.7917-68.5862 85.25-61.1667 85.25Z" fill="#b46a7e" fill-rule="nonzero" opacity="1" stroke="none" vectornator:layerName="path"/>
<path d="M-15.9583 138.932L-15.9583 130.458L2.125 136.917L6 149.833L-9.5 152.417L-8.20833 143.375L-15.9583 138.932Z" fill="url(#LinearGradient_7)" fill-rule="nonzero" opacity="1" stroke="none" vectornator:layerName="path"/>
</g>
</g>
</g>
</svg>
